<mxfile host="app.diagrams.net" agent="Mozilla/5.0 (Windows NT 10.0; Win64; x64) AppleWebKit/537.36 (KHTML, like Gecko) Chrome/129.0.0.0 Safari/537.36" version="24.7.17">
  <diagram name="PÃ¡gina-1" id="BLTC9X5WyBZ09LX_pON6">
    <mxGraphModel grid="1" page="1" gridSize="10" guides="1" tooltips="1" connect="1" arrows="1" fold="1" pageScale="1" pageWidth="827" pageHeight="1169" math="0" shadow="0">
      <root>
        <mxCell id="0" />
        <mxCell id="1" parent="0" />
        <mxCell id="QOAj6Aku-NVClWd5Jpc3-7" style="rounded=0;orthogonalLoop=1;jettySize=auto;html=1;exitX=0.5;exitY=0.5;exitDx=0;exitDy=0;exitPerimeter=0;" edge="1" parent="1" source="QOAj6Aku-NVClWd5Jpc3-1" target="QOAj6Aku-NVClWd5Jpc3-3">
          <mxGeometry relative="1" as="geometry" />
        </mxCell>
        <mxCell id="QOAj6Aku-NVClWd5Jpc3-8" style="edgeStyle=orthogonalEdgeStyle;rounded=0;orthogonalLoop=1;jettySize=auto;html=1;exitX=0.5;exitY=0.5;exitDx=0;exitDy=0;exitPerimeter=0;entryX=0;entryY=0.5;entryDx=0;entryDy=0;" edge="1" parent="1" source="QOAj6Aku-NVClWd5Jpc3-1" target="QOAj6Aku-NVClWd5Jpc3-5">
          <mxGeometry relative="1" as="geometry" />
        </mxCell>
        <mxCell id="62UpCeokVxwHC0Mm5yV3-4" style="rounded=0;orthogonalLoop=1;jettySize=auto;html=1;exitX=0.5;exitY=0.5;exitDx=0;exitDy=0;exitPerimeter=0;entryX=0;entryY=0.5;entryDx=0;entryDy=0;" edge="1" parent="1" source="QOAj6Aku-NVClWd5Jpc3-1" target="62UpCeokVxwHC0Mm5yV3-1">
          <mxGeometry relative="1" as="geometry" />
        </mxCell>
        <mxCell id="QOAj6Aku-NVClWd5Jpc3-1" value="Actor" style="shape=umlActor;verticalLabelPosition=bottom;verticalAlign=top;html=1;outlineConnect=0;fillColor=#B9E0A5;" vertex="1" parent="1">
          <mxGeometry x="80" y="265" width="30" height="60" as="geometry" />
        </mxCell>
        <mxCell id="QOAj6Aku-NVClWd5Jpc3-2" value="" style="swimlane;startSize=0;" vertex="1" parent="1">
          <mxGeometry x="140" y="100" width="480" height="390" as="geometry" />
        </mxCell>
        <mxCell id="QOAj6Aku-NVClWd5Jpc3-10" style="rounded=0;orthogonalLoop=1;jettySize=auto;html=1;exitX=1;exitY=0.5;exitDx=0;exitDy=0;entryX=0;entryY=0.5;entryDx=0;entryDy=0;" edge="1" parent="QOAj6Aku-NVClWd5Jpc3-2" source="QOAj6Aku-NVClWd5Jpc3-3" target="QOAj6Aku-NVClWd5Jpc3-4">
          <mxGeometry relative="1" as="geometry" />
        </mxCell>
        <mxCell id="QOAj6Aku-NVClWd5Jpc3-3" value="Ingresar datos de un proveedor" style="ellipse;whiteSpace=wrap;html=1;fillColor=#B9E0A5;" vertex="1" parent="QOAj6Aku-NVClWd5Jpc3-2">
          <mxGeometry x="50" y="20" width="120" height="80" as="geometry" />
        </mxCell>
        <mxCell id="QOAj6Aku-NVClWd5Jpc3-4" value="Guardar datos&amp;nbsp;" style="ellipse;whiteSpace=wrap;html=1;fillColor=#E6D0DE;" vertex="1" parent="QOAj6Aku-NVClWd5Jpc3-2">
          <mxGeometry x="274" y="150" width="120" height="80" as="geometry" />
        </mxCell>
        <mxCell id="QOAj6Aku-NVClWd5Jpc3-11" style="rounded=0;orthogonalLoop=1;jettySize=auto;html=1;exitX=1;exitY=0.5;exitDx=0;exitDy=0;entryX=0;entryY=0.5;entryDx=0;entryDy=0;" edge="1" parent="QOAj6Aku-NVClWd5Jpc3-2" source="QOAj6Aku-NVClWd5Jpc3-5" target="QOAj6Aku-NVClWd5Jpc3-4">
          <mxGeometry relative="1" as="geometry">
            <mxPoint x="270" y="190" as="targetPoint" />
          </mxGeometry>
        </mxCell>
        <mxCell id="QOAj6Aku-NVClWd5Jpc3-5" value="Modificar datos de proveedor" style="ellipse;whiteSpace=wrap;html=1;fillColor=#B9E0A5;" vertex="1" parent="QOAj6Aku-NVClWd5Jpc3-2">
          <mxGeometry x="50" y="155" width="120" height="80" as="geometry" />
        </mxCell>
        <mxCell id="62UpCeokVxwHC0Mm5yV3-2" style="rounded=0;orthogonalLoop=1;jettySize=auto;html=1;exitX=1;exitY=0.5;exitDx=0;exitDy=0;" edge="1" parent="QOAj6Aku-NVClWd5Jpc3-2" source="62UpCeokVxwHC0Mm5yV3-1">
          <mxGeometry relative="1" as="geometry">
            <mxPoint x="270" y="190" as="targetPoint" />
          </mxGeometry>
        </mxCell>
        <mxCell id="62UpCeokVxwHC0Mm5yV3-1" value="Eliminar proveedor" style="ellipse;whiteSpace=wrap;html=1;fillColor=#B9E0A5;" vertex="1" parent="QOAj6Aku-NVClWd5Jpc3-2">
          <mxGeometry x="50" y="280" width="120" height="80" as="geometry" />
        </mxCell>
        <mxCell id="QOAj6Aku-NVClWd5Jpc3-12" style="edgeStyle=orthogonalEdgeStyle;rounded=0;orthogonalLoop=1;jettySize=auto;html=1;exitX=0.5;exitY=0.5;exitDx=0;exitDy=0;exitPerimeter=0;entryX=1;entryY=0.5;entryDx=0;entryDy=0;" edge="1" parent="1" source="QOAj6Aku-NVClWd5Jpc3-6" target="QOAj6Aku-NVClWd5Jpc3-4">
          <mxGeometry relative="1" as="geometry" />
        </mxCell>
        <mxCell id="QOAj6Aku-NVClWd5Jpc3-6" value="Sistema" style="shape=umlActor;verticalLabelPosition=bottom;verticalAlign=top;html=1;outlineConnect=0;fillColor=#E6D0DE;" vertex="1" parent="1">
          <mxGeometry x="640" y="260" width="30" height="60" as="geometry" />
        </mxCell>
        <mxCell id="QOAj6Aku-NVClWd5Jpc3-13" value="&lt;font style=&quot;font-size: 24px;&quot;&gt;Compra y proveedores&lt;/font&gt;" style="rounded=0;whiteSpace=wrap;html=1;" vertex="1" parent="1">
          <mxGeometry x="140" y="40" width="480" height="60" as="geometry" />
        </mxCell>
      </root>
    </mxGraphModel>
  </diagram>
</mxfile>
